{"buffers":[{"uri":"baseboard.bin","byteLength":7303712}],"asset":{"version":"2.0","generator":"gltfpack 0.20"},"extensionsUsed":["KHR_mesh_quantization"],"extensionsRequired":["KHR_mesh_quantization"],"bufferViews":[{"buffer":0,"byteOffset":0,"byteLength":1258988,"byteStride":4,"target":34962},{"buffer":0,"byteOffset":1258988,"byteLength":2517976,"byteStride":8,"target":34962},{"buffer":0,"byteOffset":3776964,"byteLength":3209484,"target":34963},{"buffer":0,"byteOffset":6986448,"byteLength":317262,"target":34963}],"accessors":[{"bufferView":0,"byteOffset":0,"componentType":5120,"count":171624,"type":"VEC3","normalized":true},{"bufferView":1,"byteOffset":0,"componentType":5123,"count":171624,"type":"VEC3","min":[142,0,257],"max":[16383,6286,10675]},{"bufferView":2,"byteOffset":0,"componentType":5125,"count":539523,"type":"SCALAR"},{"bufferView":0,"byteOffset":686496,"componentType":5120,"count":99091,"type":"VEC3","normalized":true},{"bufferView":1,"byteOffset":1372992,"componentType":5123,"count":99091,"type":"VEC3","min":[310,149,0],"max":[15971,2889,10102]},{"bufferView":2,"byteOffset":2158092,"componentType":5125,"count":262848,"type":"SCALAR"},{"bufferView":0,"byteOffset":1082860,"componentType":5120,"count":554,"type":"VEC3","normalized":true},{"bufferView":1,"byteOffset":2165720,"componentType":5123,"count":554,"type":"VEC3","min":[4093,1432,6349],"max":[9074,1919,7934]},{"bufferView":3,"byteOffset":0,"componentType":5123,"count":1638,"type":"SCALAR"},{"bufferView":0,"byteOffset":1085076,"componentType":5120,"count":5862,"type":"VEC3","normalized":true},{"bufferView":1,"byteOffset":2170152,"componentType":5123,"count":5862,"type":"VEC3","min":[4154,1212,5305],"max":[14155,1919,7860]},{"bufferView":3,"byteOffset":3276,"componentType":5123,"count":14004,"type":"SCALAR"},{"bufferView":0,"byteOffset":1108524,"componentType":5120,"count":80,"type":"VEC3","normalized":true},{"bufferView":1,"byteOffset":2217048,"componentType":5123,"count":80,"type":"VEC3","min":[4236,1416,6491],"max":[8971,1432,7831]},{"bufferView":3,"byteOffset":31284,"componentType":5123,"count":120,"type":"SCALAR"},{"bufferView":0,"byteOffset":1108844,"componentType":5120,"count":1508,"type":"VEC3","normalized":true},{"bufferView":1,"byteOffset":2217688,"componentType":5123,"count":1508,"type":"VEC3","min":[2695,1416,1039],"max":[15089,1541,7822]},{"bufferView":3,"byteOffset":31524,"componentType":5123,"count":5538,"type":"SCALAR"},{"bufferView":0,"byteOffset":1114876,"componentType":5120,"count":3120,"type":"VEC3","normalized":true},{"bufferView":1,"byteOffset":2229752,"componentType":5123,"count":3120,"type":"VEC3","min":[2711,1411,1036],"max":[15138,1444,7775]},{"bufferView":3,"byteOffset":42600,"componentType":5123,"count":10908,"type":"SCALAR"},{"bufferView":0,"byteOffset":1127356,"componentType":5120,"count":25468,"type":"VEC3","normalized":true},{"bufferView":1,"byteOffset":2254712,"componentType":5123,"count":25468,"type":"VEC3","min":[7509,1147,5281],"max":[14155,1497,7456]},{"bufferView":3,"byteOffset":64416,"componentType":5123,"count":105063,"type":"SCALAR"},{"bufferView":0,"byteOffset":1229228,"componentType":5120,"count":548,"type":"VEC3","normalized":true},{"bufferView":1,"byteOffset":2458456,"componentType":5123,"count":548,"type":"VEC3","min":[262,1427,393],"max":[1498,1667,1593]},{"bufferView":3,"byteOffset":274542,"componentType":5123,"count":1308,"type":"SCALAR"},{"bufferView":0,"byteOffset":1231420,"componentType":5120,"count":200,"type":"VEC3","normalized":true},{"bufferView":1,"byteOffset":2462840,"componentType":5123,"count":200,"type":"VEC3","min":[283,1416,223],"max":[1477,1919,1763]},{"bufferView":3,"byteOffset":277158,"componentType":5123,"count":420,"type":"SCALAR"},{"bufferView":0,"byteOffset":1232220,"componentType":5120,"count":24,"type":"VEC3","normalized":true},{"bufferView":1,"byteOffset":2464440,"componentType":5123,"count":24,"type":"VEC3","min":[15842,1438,7036],"max":[15882,1482,7076]},{"bufferView":3,"byteOffset":277998,"componentType":5123,"count":36,"type":"SCALAR"},{"bufferView":0,"byteOffset":1232316,"componentType":5120,"count":392,"type":"VEC3","normalized":true},{"bufferView":1,"byteOffset":2464632,"componentType":5123,"count":392,"type":"VEC3","min":[15704,1393,6991],"max":[15964,1439,7121]},{"bufferView":3,"byteOffset":278070,"componentType":5123,"count":960,"type":"SCALAR"},{"bufferView":0,"byteOffset":1233884,"componentType":5120,"count":48,"type":"VEC3","normalized":true},{"bufferView":1,"byteOffset":2467768,"componentType":5123,"count":48,"type":"VEC3","min":[8374,561,8862],"max":[8399,603,8951]},{"bufferView":3,"byteOffset":279990,"componentType":5123,"count":96,"type":"SCALAR"},{"bufferView":0,"byteOffset":1234076,"componentType":5120,"count":6228,"type":"VEC3","normalized":true},{"bufferView":1,"byteOffset":2468152,"componentType":5123,"count":6228,"type":"VEC3","min":[0,1236,122],"max":[16236,1408,9863]},{"bufferView":3,"byteOffset":280182,"componentType":5123,"count":18540,"type":"SCALAR"}],"materials":[{"name":"mat_0","pbrMetallicRoughness":{"baseColorFactor":[0.603827357,0.603827357,0.603827357,1]},"doubleSided":true},{"name":"mat_1","pbrMetallicRoughness":{"baseColorFactor":[0.351532638,0.351532638,0.351532638,1]},"doubleSided":true},{"name":"mat_2","pbrMetallicRoughness":{"baseColorFactor":[0.0295568351,0.0343398079,0.0343398079,1]},"doubleSided":true},{"name":"mat_3","pbrMetallicRoughness":{},"doubleSided":true},{"name":"mat_4","pbrMetallicRoughness":{"baseColorFactor":[0.651405632,0.672443151,0.651405632,1]},"doubleSided":true},{"name":"mat_5","pbrMetallicRoughness":{"baseColorFactor":[0.0331047662,0.0331047662,0.0331047662,1]},"doubleSided":true},{"name":"mat_6","pbrMetallicRoughness":{"baseColorFactor":[0.445201218,0.445201218,0.445201218,1]},"doubleSided":true},{"name":"mat_7","pbrMetallicRoughness":{"baseColorFactor":[0.215860531,0.215860531,0.215860531,1]},"doubleSided":true},{"name":"mat_8","pbrMetallicRoughness":{"baseColorFactor":[0.783537805,0.830769897,0.846873224,1]},"doubleSided":true},{"name":"mat_9","pbrMetallicRoughness":{"baseColorFactor":[1,0.679542482,0.0159962941,1]},"doubleSided":true},{"name":"mat_10","pbrMetallicRoughness":{"baseColorFactor":[1,0,0,1]},"doubleSided":true},{"name":"mat_11","pbrMetallicRoughness":{"baseColorFactor":[1,1,0.215860531,1]},"doubleSided":true},{"name":"mat_12","pbrMetallicRoughness":{"baseColorFactor":[0,0.111932434,0.479320198,1]},"doubleSided":true},{"name":"mat_13","pbrMetallicRoughness":{"baseColorFactor":[0.0802198276,0.20155625,0.141263291,1]},"doubleSided":true}],"meshes":[{"primitives":[{"attributes":{"NORMAL":0,"POSITION":1},"indices":2,"material":0},{"attributes":{"NORMAL":3,"POSITION":4},"indices":5,"material":1},{"attributes":{"NORMAL":6,"POSITION":7},"indices":8,"material":2},{"attributes":{"NORMAL":9,"POSITION":10},"indices":11,"material":3},{"attributes":{"NORMAL":12,"POSITION":13},"indices":14,"material":4},{"attributes":{"NORMAL":15,"POSITION":16},"indices":17,"material":5},{"attributes":{"NORMAL":18,"POSITION":19},"indices":20,"material":6},{"attributes":{"NORMAL":21,"POSITION":22},"indices":23,"material":7},{"attributes":{"NORMAL":24,"POSITION":25},"indices":26,"material":8},{"attributes":{"NORMAL":27,"POSITION":28},"indices":29,"material":9},{"attributes":{"NORMAL":30,"POSITION":31},"indices":32,"material":10},{"attributes":{"NORMAL":33,"POSITION":34},"indices":35,"material":11},{"attributes":{"NORMAL":36,"POSITION":37},"indices":38,"material":12},{"attributes":{"NORMAL":39,"POSITION":40},"indices":41,"material":13}]}],"nodes":[{"mesh":0,"translation":[-0.0508849993,-0.00761499954,-0.00697089918],"scale":[6.1592732e-06,6.1592732e-06,6.1592732e-06]}],"scenes":[{"nodes":[0]}],"scene":0}