{"buffers":[{"uri":"case_bot.bin","byteLength":18360}],"asset":{"version":"2.0","generator":"gltfpack 0.20"},"extensionsUsed":["KHR_mesh_quantization"],"extensionsRequired":["KHR_mesh_quantization"],"bufferViews":[{"buffer":0,"byteOffset":0,"byteLength":4384,"byteStride":4,"target":34962},{"buffer":0,"byteOffset":4384,"byteLength":8768,"byteStride":8,"target":34962},{"buffer":0,"byteOffset":13152,"byteLength":5208,"target":34963}],"accessors":[{"bufferView":0,"byteOffset":0,"componentType":5120,"count":1096,"type":"VEC3","normalized":true},{"bufferView":1,"byteOffset":0,"componentType":5123,"count":1096,"type":"VEC3","min":[0,0,0],"max":[16383,1497,9443]},{"bufferView":2,"byteOffset":0,"componentType":5123,"count":2604,"type":"SCALAR"}],"materials":[{"name":"mat_0","pbrMetallicRoughness":{"baseColorFactor":[0.351532638,0.351532638,0.351532638,1]},"doubleSided":true}],"meshes":[{"primitives":[{"attributes":{"NORMAL":0,"POSITION":1},"indices":2,"material":0}]}],"nodes":[{"mesh":0,"translation":[-0.0601999983,-0.00999999978,-0.0372000001],"scale":[7.34908099e-06,7.34908099e-06,7.34908099e-06]}],"scenes":[{"nodes":[0]}],"scene":0}