{"buffers":[{"uri":"cooler.bin","byteLength":344264}],"asset":{"version":"2.0","generator":"gltfpack 0.20"},"extensionsUsed":["KHR_mesh_quantization"],"extensionsRequired":["KHR_mesh_quantization"],"bufferViews":[{"buffer":0,"byteOffset":0,"byteLength":73436,"byteStride":4,"target":34962},{"buffer":0,"byteOffset":73436,"byteLength":146872,"byteStride":8,"target":34962},{"buffer":0,"byteOffset":220308,"byteLength":123954,"target":34963}],"accessors":[{"bufferView":0,"byteOffset":0,"componentType":5120,"count":18359,"type":"VEC3","normalized":true},{"bufferView":1,"byteOffset":0,"componentType":5123,"count":18359,"type":"VEC3","min":[0,0,0],"max":[16383,5102,11054]},{"bufferView":2,"byteOffset":0,"componentType":5123,"count":61977,"type":"SCALAR"}],"materials":[{"name":"mat_0","pbrMetallicRoughness":{"baseColorFactor":[0.0409151986,0.0409151986,0.0409151986,1]},"doubleSided":true}],"meshes":[{"primitives":[{"attributes":{"NORMAL":0,"POSITION":1},"indices":2,"material":0}]}],"nodes":[{"mesh":0,"translation":[-0.123920001,0.00350000011,-0.0386000015],"scale":[3.5280475e-06,3.5280475e-06,3.5280475e-06]}],"scenes":[{"nodes":[0]}],"scene":0}