{"buffers":[{"uri":"nvidia.bin","byteLength":53940}],"asset":{"version":"2.0","generator":"gltfpack 0.20"},"extensionsUsed":["KHR_mesh_quantization"],"extensionsRequired":["KHR_mesh_quantization"],"bufferViews":[{"buffer":0,"byteOffset":0,"byteLength":12380,"byteStride":4,"target":34962},{"buffer":0,"byteOffset":12380,"byteLength":24760,"byteStride":8,"target":34962},{"buffer":0,"byteOffset":37140,"byteLength":16800,"target":34963}],"accessors":[{"bufferView":0,"byteOffset":0,"componentType":5120,"count":3095,"type":"VEC3","normalized":true},{"bufferView":1,"byteOffset":0,"componentType":5123,"count":3095,"type":"VEC3","min":[0,0,0],"max":[16383,1808,10592]},{"bufferView":2,"byteOffset":0,"componentType":5123,"count":8400,"type":"SCALAR"}],"materials":[{"name":"mat_0","pbrMetallicRoughness":{"baseColorFactor":[0.603827357,0.603827357,0.603827357,1]},"doubleSided":true}],"meshes":[{"primitives":[{"attributes":{"NORMAL":0,"POSITION":1},"indices":2,"material":0}]}],"nodes":[{"mesh":0,"translation":[-0.00200000009,-0.00139999995,-0.0390000008],"scale":[4.24830569e-06,4.24830569e-06,4.24830569e-06]}],"scenes":[{"nodes":[0]}],"scene":0}