{"buffers":[{"uri":"pd_case_bot.bin","byteLength":12984}],"asset":{"version":"2.0","generator":"gltfpack 0.20"},"extensionsUsed":["KHR_mesh_quantization"],"extensionsRequired":["KHR_mesh_quantization"],"bufferViews":[{"buffer":0,"byteOffset":0,"byteLength":3040,"byteStride":4,"target":34962},{"buffer":0,"byteOffset":3040,"byteLength":6080,"byteStride":8,"target":34962},{"buffer":0,"byteOffset":9120,"byteLength":3864,"target":34963}],"accessors":[{"bufferView":0,"byteOffset":0,"componentType":5120,"count":760,"type":"VEC3","normalized":true},{"bufferView":1,"byteOffset":0,"componentType":5123,"count":760,"type":"VEC3","min":[0,0,0],"max":[16383,2177,6804]},{"bufferView":2,"byteOffset":0,"componentType":5123,"count":1932,"type":"SCALAR"}],"materials":[{"name":"mat_0","pbrMetallicRoughness":{"baseColorFactor":[0.351532638,0.351532638,0.351532638,1]},"doubleSided":true}],"meshes":[{"primitives":[{"attributes":{"NORMAL":0,"POSITION":1},"indices":2,"material":0}]}],"nodes":[{"mesh":0,"translation":[-0.060200002,0.00399999879,-0.0610000007],"scale":[7.34908099e-06,7.34908099e-06,7.34908099e-06]}],"scenes":[{"nodes":[0]}],"scene":0}