{"buffers":[{"uri":"pd_case_top.bin","byteLength":21228}],"asset":{"version":"2.0","generator":"gltfpack 0.20"},"extensionsUsed":["KHR_mesh_quantization"],"extensionsRequired":["KHR_mesh_quantization"],"bufferViews":[{"buffer":0,"byteOffset":0,"byteLength":4876,"byteStride":4,"target":34962},{"buffer":0,"byteOffset":4876,"byteLength":9752,"byteStride":8,"target":34962},{"buffer":0,"byteOffset":14628,"byteLength":6600,"target":34963}],"accessors":[{"bufferView":0,"byteOffset":0,"componentType":5120,"count":1219,"type":"VEC3","normalized":true},{"bufferView":1,"byteOffset":0,"componentType":5123,"count":1219,"type":"VEC3","min":[0,0,0],"max":[16383,3239,9525]},{"bufferView":2,"byteOffset":0,"componentType":5123,"count":3300,"type":"SCALAR"}],"materials":[{"name":"mat_0","pbrMetallicRoughness":{"baseColorFactor":[0.351532638,0.351532638,0.351532638,1]},"doubleSided":true}],"meshes":[{"primitives":[{"attributes":{"NORMAL":0,"POSITION":1},"indices":2,"material":0}]}],"nodes":[{"mesh":0,"translation":[-0.0430000015,0.0199999996,-0.0610000007],"scale":[5.24934376e-06,5.24934376e-06,5.24934376e-06]}],"scenes":[{"nodes":[0]}],"scene":0}