{"buffers":[{"uri":"steval_board.bin","byteLength":8424}],"asset":{"version":"2.0","generator":"gltfpack 0.20"},"extensionsUsed":["KHR_mesh_quantization"],"extensionsRequired":["KHR_mesh_quantization"],"bufferViews":[{"buffer":0,"byteOffset":0,"byteLength":1888,"byteStride":4,"target":34962},{"buffer":0,"byteOffset":1888,"byteLength":3776,"byteStride":8,"target":34962},{"buffer":0,"byteOffset":5664,"byteLength":2760,"target":34963}],"accessors":[{"bufferView":0,"byteOffset":0,"componentType":5120,"count":472,"type":"VEC3","normalized":true},{"bufferView":1,"byteOffset":0,"componentType":5123,"count":472,"type":"VEC3","min":[0,0,0],"max":[16383,2198,9190]},{"bufferView":2,"byteOffset":0,"componentType":5123,"count":1380,"type":"SCALAR"}],"materials":[{"name":"mat_0","pbrMetallicRoughness":{"baseColorFactor":[0.351532638,0.351532638,0.351532638,1]},"doubleSided":true}],"meshes":[{"primitives":[{"attributes":{"NORMAL":0,"POSITION":1},"indices":2,"material":0}]}],"nodes":[{"mesh":0,"translation":[-0.0410000011,0.0139999995,-0.0590000004],"scale":[5.00518854e-06,5.00518854e-06,5.00518854e-06]}],"scenes":[{"nodes":[0]}],"scene":0}