{"buffers":[{"uri":"headband.bin","byteLength":18516}],"asset":{"version":"2.0","generator":"gltfpack 0.20"},"extensionsUsed":["KHR_mesh_quantization"],"extensionsRequired":["KHR_mesh_quantization"],"bufferViews":[{"buffer":0,"byteOffset":0,"byteLength":3816,"byteStride":4,"target":34962},{"buffer":0,"byteOffset":3816,"byteLength":7632,"byteStride":8,"target":34962},{"buffer":0,"byteOffset":11448,"byteLength":7068,"target":34963}],"accessors":[{"bufferView":0,"byteOffset":0,"componentType":5120,"count":954,"type":"VEC3","normalized":true},{"bufferView":1,"byteOffset":0,"componentType":5123,"count":954,"type":"VEC3","min":[0,0,0],"max":[14190,16383,8470]},{"bufferView":2,"byteOffset":0,"componentType":5123,"count":3534,"type":"SCALAR"}],"materials":[{"name":"mat_0","pbrMetallicRoughness":{"baseColorFactor":[0,0,0,1]},"doubleSided":true}],"meshes":[{"primitives":[{"attributes":{"NORMAL":0,"POSITION":1},"indices":2,"material":0}]}],"nodes":[{"mesh":0,"translation":[-0.0645927861,0.00499999989,-0.0120000001],"scale":[9.13555323e-06,9.13555323e-06,9.13555323e-06]}],"scenes":[{"nodes":[0]}],"scene":0}