{"buffers":[{"uri":"powercable.bin","byteLength":150504}],"asset":{"version":"2.0","generator":"gltfpack 0.20"},"extensionsUsed":["KHR_mesh_quantization"],"extensionsRequired":["KHR_mesh_quantization"],"bufferViews":[{"buffer":0,"byteOffset":0,"byteLength":25596,"byteStride":4,"target":34962},{"buffer":0,"byteOffset":25596,"byteLength":51192,"byteStride":8,"target":34962},{"buffer":0,"byteOffset":76788,"byteLength":73716,"target":34963}],"accessors":[{"bufferView":0,"byteOffset":0,"componentType":5120,"count":312,"type":"VEC3","normalized":true},{"bufferView":1,"byteOffset":0,"componentType":5123,"count":312,"type":"VEC3","min":[2762,116,0],"max":[7001,3114,16272]},{"bufferView":2,"byteOffset":0,"componentType":5123,"count":888,"type":"SCALAR"},{"bufferView":0,"byteOffset":1248,"componentType":5120,"count":2810,"type":"VEC3","normalized":true},{"bufferView":1,"byteOffset":2496,"componentType":5123,"count":2810,"type":"VEC3","min":[9,0,0],"max":[7001,7313,16279]},{"bufferView":2,"byteOffset":1776,"componentType":5123,"count":16470,"type":"SCALAR"},{"bufferView":0,"byteOffset":12488,"componentType":5120,"count":3277,"type":"VEC3","normalized":true},{"bufferView":1,"byteOffset":24976,"componentType":5123,"count":3277,"type":"VEC3","min":[0,3,9],"max":[6991,7364,16383]},{"bufferView":2,"byteOffset":34716,"componentType":5123,"count":19500,"type":"SCALAR"}],"materials":[{"name":"mat_0","pbrMetallicRoughness":{"baseColorFactor":[0.603827357,0.603827357,0.603827357,1]},"doubleSided":true},{"name":"mat_1","pbrMetallicRoughness":{"baseColorFactor":[0.55201143,0.0356013142,0.0202885605,1]},"doubleSided":true},{"name":"mat_2","pbrMetallicRoughness":{"baseColorFactor":[0.00972121768,0.00972121768,0.00972121768,1]},"doubleSided":true}],"meshes":[{"primitives":[{"attributes":{"NORMAL":0,"POSITION":1},"indices":2,"material":0},{"attributes":{"NORMAL":3,"POSITION":4},"indices":5,"material":1},{"attributes":{"NORMAL":6,"POSITION":7},"indices":8,"material":2}]}],"nodes":[{"mesh":0,"translation":[-0.0583615676,0.157280937,-0.0948070511],"scale":[4.7262165e-06,4.7262165e-06,4.7262165e-06]}],"scenes":[{"nodes":[0]}],"scene":0}