{"buffers":[{"uri":"powerbank.bin","byteLength":47268}],"asset":{"version":"2.0","generator":"gltfpack 0.20"},"extensionsUsed":["KHR_mesh_quantization"],"extensionsRequired":["KHR_mesh_quantization"],"bufferViews":[{"buffer":0,"byteOffset":0,"byteLength":8296,"byteStride":4,"target":34962},{"buffer":0,"byteOffset":8296,"byteLength":16592,"byteStride":8,"target":34962},{"buffer":0,"byteOffset":24888,"byteLength":22380,"target":34963}],"accessors":[{"bufferView":0,"byteOffset":0,"componentType":5120,"count":2074,"type":"VEC3","normalized":true},{"bufferView":1,"byteOffset":0,"componentType":5123,"count":2074,"type":"VEC3","min":[0,0,0],"max":[12249,16383,6390]},{"bufferView":2,"byteOffset":0,"componentType":5123,"count":11190,"type":"SCALAR"}],"materials":[{"name":"mat_0","pbrMetallicRoughness":{"baseColorFactor":[0.351532638,0.351532638,0.351532638,1]},"doubleSided":true}],"meshes":[{"primitives":[{"attributes":{"NORMAL":0,"POSITION":1},"indices":2,"material":0}]}],"nodes":[{"mesh":0,"translation":[-0.0370372087,0.0149999997,-0.199316517],"scale":[1.24122571e-05,1.24122571e-05,1.24122571e-05]}],"scenes":[{"nodes":[0]}],"scene":0}