{"buffers":[{"uri":"typec_cable.bin","byteLength":81024}],"asset":{"version":"2.0","generator":"gltfpack 0.20"},"extensionsUsed":["KHR_mesh_quantization"],"extensionsRequired":["KHR_mesh_quantization"],"bufferViews":[{"buffer":0,"byteOffset":0,"byteLength":13872,"byteStride":4,"target":34962},{"buffer":0,"byteOffset":13872,"byteLength":27744,"byteStride":8,"target":34962},{"buffer":0,"byteOffset":41616,"byteLength":39408,"target":34963}],"accessors":[{"bufferView":0,"byteOffset":0,"componentType":5120,"count":3468,"type":"VEC3","normalized":true},{"bufferView":1,"byteOffset":0,"componentType":5123,"count":3468,"type":"VEC3","min":[0,0,0],"max":[12125,16383,12285]},{"bufferView":2,"byteOffset":0,"componentType":5123,"count":19704,"type":"SCALAR"}],"materials":[{"name":"mat_0","pbrMetallicRoughness":{"baseColorFactor":[0.0202885605,0.0202885605,0.0202885605,1]},"doubleSided":true}],"meshes":[{"primitives":[{"attributes":{"NORMAL":0,"POSITION":1},"indices":2,"material":0}]}],"nodes":[{"mesh":0,"translation":[-0.0260000005,-0.0083999997,-0.120848432],"scale":[1.17095205e-05,1.17095205e-05,1.17095205e-05]}],"scenes":[{"nodes":[0]}],"scene":0}