{"buffers":[{"uri":"case.bin","byteLength":111156}],"asset":{"version":"2.0","generator":"gltfpack 0.20"},"extensionsUsed":["KHR_mesh_quantization"],"extensionsRequired":["KHR_mesh_quantization"],"bufferViews":[{"buffer":0,"byteOffset":0,"byteLength":25512,"byteStride":4,"target":34962},{"buffer":0,"byteOffset":25512,"byteLength":51024,"byteStride":8,"target":34962},{"buffer":0,"byteOffset":76536,"byteLength":34620,"target":34963}],"accessors":[{"bufferView":0,"byteOffset":0,"componentType":5120,"count":6378,"type":"VEC3","normalized":true},{"bufferView":1,"byteOffset":0,"componentType":5123,"count":6378,"type":"VEC3","min":[0,0,0],"max":[16383,3360,8220]},{"bufferView":2,"byteOffset":0,"componentType":5123,"count":17310,"type":"SCALAR"}],"materials":[{"name":"mat_0","pbrMetallicRoughness":{"baseColorFactor":[0.603827357,0.603827357,0.603827357,1]},"doubleSided":true}],"meshes":[{"primitives":[{"attributes":{"NORMAL":0,"POSITION":1},"indices":2,"material":0}]}],"nodes":[{"mesh":0,"translation":[-0.064000003,-0.0172495507,-0.0364203118],"scale":[7.81297695e-06,7.81297695e-06,7.81297695e-06]}],"scenes":[{"nodes":[0]}],"scene":0}