{"buffers":[{"uri":"clamps.bin","byteLength":30912}],"asset":{"version":"2.0","generator":"gltfpack 0.20"},"extensionsUsed":["KHR_mesh_quantization"],"extensionsRequired":["KHR_mesh_quantization"],"bufferViews":[{"buffer":0,"byteOffset":0,"byteLength":7176,"byteStride":4,"target":34962},{"buffer":0,"byteOffset":7176,"byteLength":14352,"byteStride":8,"target":34962},{"buffer":0,"byteOffset":21528,"byteLength":9384,"target":34963}],"accessors":[{"bufferView":0,"byteOffset":0,"componentType":5120,"count":1794,"type":"VEC3","normalized":true},{"bufferView":1,"byteOffset":0,"componentType":5123,"count":1794,"type":"VEC3","min":[0,0,0],"max":[16383,933,3065]},{"bufferView":2,"byteOffset":0,"componentType":5123,"count":4692,"type":"SCALAR"}],"materials":[{"name":"mat_0","pbrMetallicRoughness":{"baseColorFactor":[0.603827357,0.603827357,0.603827357,1]},"doubleSided":true}],"meshes":[{"primitives":[{"attributes":{"NORMAL":0,"POSITION":1},"indices":2,"material":0}]}],"nodes":[{"mesh":0,"translation":[-0.0614500009,-0.00100000005,-0.0114941262],"scale":[7.50167874e-06,7.50167874e-06,7.50167874e-06]}],"scenes":[{"nodes":[0]}],"scene":0}