{"buffers":[{"uri":"display_optics.bin","byteLength":128532}],"asset":{"version":"2.0","generator":"gltfpack 0.20"},"extensionsUsed":["KHR_mesh_quantization"],"extensionsRequired":["KHR_mesh_quantization"],"bufferViews":[{"buffer":0,"byteOffset":0,"byteLength":28892,"byteStride":4,"target":34962},{"buffer":0,"byteOffset":28892,"byteLength":57784,"byteStride":8,"target":34962},{"buffer":0,"byteOffset":86676,"byteLength":41856,"target":34963}],"accessors":[{"bufferView":0,"byteOffset":0,"componentType":5120,"count":7223,"type":"VEC3","normalized":true},{"bufferView":1,"byteOffset":0,"componentType":5123,"count":7223,"type":"VEC3","min":[0,0,0],"max":[16383,7034,5849]},{"bufferView":2,"byteOffset":0,"componentType":5123,"count":20928,"type":"SCALAR"}],"materials":[{"name":"mat_0","pbrMetallicRoughness":{"baseColorFactor":[0.351532638,0.351532638,0.351532638,1]},"doubleSided":true}],"meshes":[{"primitives":[{"attributes":{"NORMAL":0,"POSITION":1},"indices":2,"material":0}]}],"nodes":[{"mesh":0,"translation":[-0.0189999994,-0.0189922508,-0.00366644911],"scale":[6.22596644e-06,6.22596644e-06,6.22596644e-06]}],"scenes":[{"nodes":[0]}],"scene":0}