{"buffers":[{"uri":"display_holder.bin","byteLength":108372}],"asset":{"version":"2.0","generator":"gltfpack 0.20"},"extensionsUsed":["KHR_mesh_quantization"],"extensionsRequired":["KHR_mesh_quantization"],"bufferViews":[{"buffer":0,"byteOffset":0,"byteLength":24604,"byteStride":4,"target":34962},{"buffer":0,"byteOffset":24604,"byteLength":49208,"byteStride":8,"target":34962},{"buffer":0,"byteOffset":73812,"byteLength":34560,"target":34963}],"accessors":[{"bufferView":0,"byteOffset":0,"componentType":5120,"count":6151,"type":"VEC3","normalized":true},{"bufferView":1,"byteOffset":0,"componentType":5123,"count":6151,"type":"VEC3","min":[0,0,0],"max":[16383,1683,6524]},{"bufferView":2,"byteOffset":0,"componentType":5123,"count":17280,"type":"SCALAR"}],"materials":[{"name":"mat_0","pbrMetallicRoughness":{"baseColorFactor":[0.603827357,0.603827357,0.603827357,1]},"doubleSided":true}],"meshes":[{"primitives":[{"attributes":{"NORMAL":0,"POSITION":1},"indices":2,"material":0}]}],"nodes":[{"mesh":0,"translation":[-0.0552455373,-0.000249999983,-0.0219999999],"scale":[6.74425155e-06,6.74425155e-06,6.74425155e-06]}],"scenes":[{"nodes":[0]}],"scene":0}