{"buffers":[{"uri":"face_cushion_holder.bin","byteLength":21912}],"asset":{"version":"2.0","generator":"gltfpack 0.20"},"extensionsUsed":["KHR_mesh_quantization"],"extensionsRequired":["KHR_mesh_quantization"],"bufferViews":[{"buffer":0,"byteOffset":0,"byteLength":4920,"byteStride":4,"target":34962},{"buffer":0,"byteOffset":4920,"byteLength":9840,"byteStride":8,"target":34962},{"buffer":0,"byteOffset":14760,"byteLength":7152,"target":34963}],"accessors":[{"bufferView":0,"byteOffset":0,"componentType":5120,"count":1230,"type":"VEC3","normalized":true},{"bufferView":1,"byteOffset":0,"componentType":5123,"count":1230,"type":"VEC3","min":[0,0,0],"max":[6939,7497,16383]},{"bufferView":2,"byteOffset":0,"componentType":5123,"count":3576,"type":"SCALAR"}],"materials":[{"name":"mat_0","pbrMetallicRoughness":{"baseColorFactor":[0.351532638,0.351532638,0.351532638,1]},"doubleSided":true}],"meshes":[{"primitives":[{"attributes":{"NORMAL":0,"POSITION":1},"indices":2,"material":0}]}],"nodes":[{"mesh":0,"translation":[-0.00499786017,-0.00100000005,-0.0104999999],"scale":[1.44051762e-06,1.44051762e-06,1.44051762e-06]}],"scenes":[{"nodes":[0]}],"scene":0}