{"buffers":[{"uri":"face_cushion.bin","byteLength":726696}],"asset":{"version":"2.0","generator":"gltfpack 0.20"},"extensionsUsed":["KHR_mesh_quantization"],"extensionsRequired":["KHR_mesh_quantization"],"bufferViews":[{"buffer":0,"byteOffset":0,"byteLength":203352,"byteStride":4,"target":34962},{"buffer":0,"byteOffset":203352,"byteLength":406704,"byteStride":8,"target":34962},{"buffer":0,"byteOffset":610056,"byteLength":116640,"target":34963}],"accessors":[{"bufferView":0,"byteOffset":0,"componentType":5120,"count":50838,"type":"VEC3","normalized":true},{"bufferView":1,"byteOffset":0,"componentType":5123,"count":50838,"type":"VEC3","min":[0,0,0],"max":[16383,7209,6400]},{"bufferView":2,"byteOffset":0,"componentType":5123,"count":58320,"type":"SCALAR"}],"materials":[{"name":"mat_0","pbrMetallicRoughness":{"baseColorFactor":[0.00972121768,0.00972121768,0.00972121768,1]},"doubleSided":true}],"meshes":[{"primitives":[{"attributes":{"NORMAL":0,"POSITION":1},"indices":2,"material":0}]}],"nodes":[{"mesh":0,"translation":[-0.064000003,0.00899999961,-0.0250000004],"scale":[7.81297695e-06,7.81297695e-06,7.81297695e-06]}],"scenes":[{"nodes":[0]}],"scene":0}