{"buffers":[{"uri":"mainconstruct.bin","byteLength":90168}],"asset":{"version":"2.0","generator":"gltfpack 0.20"},"extensionsUsed":["KHR_mesh_quantization"],"extensionsRequired":["KHR_mesh_quantization"],"bufferViews":[{"buffer":0,"byteOffset":0,"byteLength":20780,"byteStride":4,"target":34962},{"buffer":0,"byteOffset":20780,"byteLength":41560,"byteStride":8,"target":34962},{"buffer":0,"byteOffset":62340,"byteLength":27828,"target":34963}],"accessors":[{"bufferView":0,"byteOffset":0,"componentType":5120,"count":5195,"type":"VEC3","normalized":true},{"bufferView":1,"byteOffset":0,"componentType":5123,"count":5195,"type":"VEC3","min":[0,0,0],"max":[16383,1507,5187]},{"bufferView":2,"byteOffset":0,"componentType":5123,"count":13914,"type":"SCALAR"}],"materials":[{"name":"mat_0","pbrMetallicRoughness":{"baseColorFactor":[0.603827357,0.603827357,0.603827357,1]},"doubleSided":true}],"meshes":[{"primitives":[{"attributes":{"NORMAL":0,"POSITION":1},"indices":2,"material":0}]}],"nodes":[{"mesh":0,"translation":[-0.0668799132,-0.00630000001,-0.0201500002],"scale":[8.16455031e-06,8.16455031e-06,8.16455031e-06]}],"scenes":[{"nodes":[0]}],"scene":0}