{"buffers":[{"uri":"rods.bin","byteLength":3744}],"asset":{"version":"2.0","generator":"gltfpack 0.20"},"extensionsUsed":["KHR_mesh_quantization"],"extensionsRequired":["KHR_mesh_quantization"],"bufferViews":[{"buffer":0,"byteOffset":0,"byteLength":848,"byteStride":4,"target":34962},{"buffer":0,"byteOffset":848,"byteLength":1696,"byteStride":8,"target":34962},{"buffer":0,"byteOffset":2544,"byteLength":1200,"target":34963}],"accessors":[{"bufferView":0,"byteOffset":0,"componentType":5120,"count":212,"type":"VEC3","normalized":true},{"bufferView":1,"byteOffset":0,"componentType":5123,"count":212,"type":"VEC3","min":[0,0,0],"max":[16383,260,4876]},{"bufferView":2,"byteOffset":0,"componentType":5123,"count":600,"type":"SCALAR"}],"materials":[{"name":"mat_0","pbrMetallicRoughness":{"baseColorFactor":[0.603827357,0.603827357,0.603827357,1]},"doubleSided":true}],"meshes":[{"primitives":[{"attributes":{"NORMAL":0,"POSITION":1},"indices":2,"material":0}]}],"nodes":[{"mesh":0,"translation":[-0.0625,0.00120729115,-0.0184000004],"scale":[7.62986019e-06,7.62986019e-06,7.62986019e-06]}],"scenes":[{"nodes":[0]}],"scene":0}