{"buffers":[{"uri":"screws.bin","byteLength":45984}],"asset":{"version":"2.0","generator":"gltfpack 0.20"},"extensionsUsed":["KHR_mesh_quantization"],"extensionsRequired":["KHR_mesh_quantization"],"bufferViews":[{"buffer":0,"byteOffset":0,"byteLength":10336,"byteStride":4,"target":34962},{"buffer":0,"byteOffset":10336,"byteLength":20672,"byteStride":8,"target":34962},{"buffer":0,"byteOffset":31008,"byteLength":14976,"target":34963}],"accessors":[{"bufferView":0,"byteOffset":0,"componentType":5120,"count":2584,"type":"VEC3","normalized":true},{"bufferView":1,"byteOffset":0,"componentType":5123,"count":2584,"type":"VEC3","min":[0,0,0],"max":[16383,4516,3129]},{"bufferView":2,"byteOffset":0,"componentType":5123,"count":7488,"type":"SCALAR"}],"materials":[{"name":"mat_0","pbrMetallicRoughness":{"baseColorFactor":[0.603827357,0.603827357,0.603827357,1]},"doubleSided":true}],"meshes":[{"primitives":[{"attributes":{"NORMAL":0,"POSITION":1},"indices":2,"material":0}]}],"nodes":[{"mesh":0,"translation":[-0.0575439744,-0.0147000002,-0.00997361727],"scale":[7.01947101e-06,7.01947101e-06,7.01947101e-06]}],"scenes":[{"nodes":[0]}],"scene":0}