{"buffers":[{"uri":"sir170.bin","byteLength":11016}],"asset":{"version":"2.0","generator":"gltfpack 0.20"},"extensionsUsed":["KHR_mesh_quantization"],"extensionsRequired":["KHR_mesh_quantization"],"bufferViews":[{"buffer":0,"byteOffset":0,"byteLength":2504,"byteStride":4,"target":34962},{"buffer":0,"byteOffset":2504,"byteLength":5008,"byteStride":8,"target":34962},{"buffer":0,"byteOffset":7512,"byteLength":3504,"target":34963}],"accessors":[{"bufferView":0,"byteOffset":0,"componentType":5120,"count":626,"type":"VEC3","normalized":true},{"bufferView":1,"byteOffset":0,"componentType":5123,"count":626,"type":"VEC3","min":[0,0,0],"max":[16383,1248,1560]},{"bufferView":2,"byteOffset":0,"componentType":5123,"count":1752,"type":"SCALAR"}],"materials":[{"name":"mat_0","pbrMetallicRoughness":{"baseColorFactor":[0.603827357,0.603827357,0.603827357,1]},"doubleSided":true}],"meshes":[{"primitives":[{"attributes":{"NORMAL":0,"POSITION":1},"indices":2,"material":0}]}],"nodes":[{"mesh":0,"translation":[-0.0525000021,-0.0154999997,0.00100000005],"scale":[6.40908274e-06,6.40908274e-06,6.40908274e-06]}],"scenes":[{"nodes":[0]}],"scene":0}