{"buffers":[{"uri":"usb2_injector.bin","byteLength":645792}],"asset":{"version":"2.0","generator":"gltfpack 0.20"},"extensionsUsed":["KHR_mesh_quantization"],"extensionsRequired":["KHR_mesh_quantization"],"bufferViews":[{"buffer":0,"byteOffset":0,"byteLength":146676,"byteStride":4,"target":34962},{"buffer":0,"byteOffset":146676,"byteLength":293352,"byteStride":8,"target":34962},{"buffer":0,"byteOffset":440028,"byteLength":205764,"target":34963}],"accessors":[{"bufferView":0,"byteOffset":0,"componentType":5120,"count":19040,"type":"VEC3","normalized":true},{"bufferView":1,"byteOffset":0,"componentType":5123,"count":19040,"type":"VEC3","min":[1864,49,8349],"max":[7835,1869,16383]},{"bufferView":2,"byteOffset":0,"componentType":5123,"count":52284,"type":"SCALAR"},{"bufferView":0,"byteOffset":76160,"componentType":5120,"count":16697,"type":"VEC3","normalized":true},{"bufferView":1,"byteOffset":152320,"componentType":5123,"count":16697,"type":"VEC3","min":[651,0,0],"max":[11219,3004,9265]},{"bufferView":2,"byteOffset":104568,"componentType":5123,"count":48666,"type":"SCALAR"},{"bufferView":0,"byteOffset":142948,"componentType":5120,"count":932,"type":"VEC3","normalized":true},{"bufferView":1,"byteOffset":285896,"componentType":5123,"count":932,"type":"VEC3","min":[0,659,1940],"max":[11219,1238,9645]},{"bufferView":2,"byteOffset":201900,"componentType":5123,"count":1932,"type":"SCALAR"}],"materials":[{"name":"mat_0","pbrMetallicRoughness":{"baseColorFactor":[0.376262158,0.341914386,0.304987341,1]},"doubleSided":true},{"name":"mat_1","pbrMetallicRoughness":{"baseColorFactor":[0.603827357,0.603827357,0.603827357,1]},"doubleSided":true},{"name":"mat_2","pbrMetallicRoughness":{"baseColorFactor":[0.0802198276,0.20155625,0.141263291,1]},"doubleSided":true}],"meshes":[{"primitives":[{"attributes":{"NORMAL":0,"POSITION":1},"indices":2,"material":0},{"attributes":{"NORMAL":3,"POSITION":4},"indices":5,"material":1},{"attributes":{"NORMAL":6,"POSITION":7},"indices":8,"material":2}]}],"nodes":[{"mesh":0,"translation":[0.0234999992,-0.000910000002,0.0277999975],"scale":[1.38161522e-06,1.38161522e-06,1.38161522e-06]}],"scenes":[{"nodes":[0]}],"scene":0}