{"buffers":[{"uri":"usb2_addon.bin","byteLength":705672}],"asset":{"version":"2.0","generator":"gltfpack 0.20"},"extensionsUsed":["KHR_mesh_quantization"],"extensionsRequired":["KHR_mesh_quantization"],"bufferViews":[{"buffer":0,"byteOffset":0,"byteLength":156752,"byteStride":4,"target":34962},{"buffer":0,"byteOffset":156752,"byteLength":313504,"byteStride":8,"target":34962},{"buffer":0,"byteOffset":470256,"byteLength":235416,"target":34963}],"accessors":[{"bufferView":0,"byteOffset":0,"componentType":5120,"count":35074,"type":"VEC3","normalized":true},{"bufferView":1,"byteOffset":0,"componentType":5123,"count":35074,"type":"VEC3","min":[437,0,218],"max":[6499,5122,16274]},{"bufferView":2,"byteOffset":0,"componentType":5123,"count":104472,"type":"SCALAR"},{"bufferView":0,"byteOffset":140296,"componentType":5120,"count":282,"type":"VEC3","normalized":true},{"bufferView":1,"byteOffset":280592,"componentType":5123,"count":282,"type":"VEC3","min":[846,3790,1393],"max":[3795,4221,12042]},{"bufferView":2,"byteOffset":208944,"componentType":5123,"count":744,"type":"SCALAR"},{"bufferView":0,"byteOffset":141424,"componentType":5120,"count":1092,"type":"VEC3","normalized":true},{"bufferView":1,"byteOffset":282848,"componentType":5123,"count":1092,"type":"VEC3","min":[846,3790,1256],"max":[3795,4221,12178]},{"bufferView":2,"byteOffset":210432,"componentType":5123,"count":4512,"type":"SCALAR"},{"bufferView":0,"byteOffset":145792,"componentType":5120,"count":106,"type":"VEC3","normalized":true},{"bufferView":1,"byteOffset":291584,"componentType":5123,"count":106,"type":"VEC3","min":[5680,4576,12287],"max":[5897,4631,12506]},{"bufferView":2,"byteOffset":219456,"componentType":5123,"count":300,"type":"SCALAR"},{"bufferView":0,"byteOffset":146216,"componentType":5120,"count":808,"type":"VEC3","normalized":true},{"bufferView":1,"byteOffset":292432,"componentType":5123,"count":808,"type":"VEC3","min":[4423,4112,11031],"max":[6062,4631,12670]},{"bufferView":2,"byteOffset":220056,"componentType":5123,"count":2136,"type":"SCALAR"},{"bufferView":0,"byteOffset":149448,"componentType":5120,"count":1826,"type":"VEC3","normalized":true},{"bufferView":1,"byteOffset":298896,"componentType":5123,"count":1826,"type":"VEC3","min":[0,3954,0],"max":[6990,4058,16383]},{"bufferView":2,"byteOffset":224328,"componentType":5123,"count":5544,"type":"SCALAR"}],"materials":[{"name":"mat_0","pbrMetallicRoughness":{"baseColorFactor":[0.603827357,0.603827357,0.603827357,1]},"doubleSided":true},{"name":"mat_1","pbrMetallicRoughness":{"baseColorFactor":[0.0331047662,0.0331047662,0.0331047662,1]},"doubleSided":true},{"name":"mat_2","pbrMetallicRoughness":{"baseColorFactor":[0.376262158,0.341914386,0.304987341,1]},"doubleSided":true},{"name":"mat_3","pbrMetallicRoughness":{},"doubleSided":true},{"name":"mat_4","pbrMetallicRoughness":{"baseColorFactor":[0.051269453,0.051269453,0.051269453,1]},"doubleSided":true},{"name":"mat_5","pbrMetallicRoughness":{"baseColorFactor":[0.0802198276,0.20155625,0.141263291,1]},"doubleSided":true}],"meshes":[{"primitives":[{"attributes":{"NORMAL":0,"POSITION":1},"indices":2,"material":0},{"attributes":{"NORMAL":3,"POSITION":4},"indices":5,"material":1},{"attributes":{"NORMAL":6,"POSITION":7},"indices":8,"material":2},{"attributes":{"NORMAL":9,"POSITION":10},"indices":11,"material":3},{"attributes":{"NORMAL":12,"POSITION":13},"indices":14,"material":4},{"attributes":{"NORMAL":15,"POSITION":16},"indices":17,"material":5}]}],"nodes":[{"mesh":0,"translation":[0.0476000011,-0.00724000018,0.0439999998],"scale":[1.83116651e-06,1.83116651e-06,1.83116651e-06]}],"scenes":[{"nodes":[0]}],"scene":0}