{"buffers":[{"uri":"xr50.bin","byteLength":10752}],"asset":{"version":"2.0","generator":"gltfpack 0.20"},"extensionsUsed":["KHR_mesh_quantization"],"extensionsRequired":["KHR_mesh_quantization"],"bufferViews":[{"buffer":0,"byteOffset":0,"byteLength":2424,"byteStride":4,"target":34962},{"buffer":0,"byteOffset":2424,"byteLength":4848,"byteStride":8,"target":34962},{"buffer":0,"byteOffset":7272,"byteLength":3480,"target":34963}],"accessors":[{"bufferView":0,"byteOffset":0,"componentType":5120,"count":606,"type":"VEC3","normalized":true},{"bufferView":1,"byteOffset":0,"componentType":5123,"count":606,"type":"VEC3","min":[0,0,0],"max":[16383,1946,3060]},{"bufferView":2,"byteOffset":0,"componentType":5123,"count":1740,"type":"SCALAR"}],"materials":[{"name":"mat_0","pbrMetallicRoughness":{"baseColorFactor":[0.603827357,0.603827357,0.603827357,1]},"doubleSided":true}],"meshes":[{"primitives":[{"attributes":{"NORMAL":0,"POSITION":1},"indices":2,"material":0}]}],"nodes":[{"mesh":0,"translation":[-0.0374714658,-0.0159000009,-0.0164999999],"scale":[4.57443275e-06,4.57443275e-06,4.57443275e-06]}],"scenes":[{"nodes":[0]}],"scene":0}