{"buffers":[{"uri":"slimevr_optimized.bin","byteLength":502824}],"asset":{"version":"2.0","generator":"gltfpack 0.20"},"extensionsUsed":["KHR_mesh_quantization"],"extensionsRequired":["KHR_mesh_quantization"],"bufferViews":[{"buffer":0,"byteOffset":0,"byteLength":271928,"byteStride":8,"target":34962},{"buffer":0,"byteOffset":271928,"byteLength":135964,"byteStride":4,"target":34962},{"buffer":0,"byteOffset":407892,"byteLength":94932,"target":34963}],"accessors":[{"bufferView":0,"byteOffset":0,"componentType":5123,"count":33991,"type":"VEC3","min":[0,0,0],"max":[16383,9132,5868]},{"bufferView":1,"byteOffset":0,"componentType":5120,"count":33991,"type":"VEC3","normalized":true},{"bufferView":2,"byteOffset":0,"componentType":5123,"count":47466,"type":"SCALAR"}],"materials":[{"name":"mat0","pbrMetallicRoughness":{"baseColorFactor":[0.603827357,0.603827357,0.603827357,1],"metallicFactor":0.5,"roughnessFactor":0.5},"doubleSided":true}],"meshes":[{"primitives":[{"attributes":{"POSITION":0,"NORMAL":1},"indices":2,"material":0}]}],"nodes":[{"mesh":0,"translation":[-18.4090919,-10.261363,-6.59399986],"scale":[0.00224734074,0.00224734074,0.00224734074]}],"scenes":[{"name":"AuxScene","nodes":[0]}],"scene":0}