{"buffers":[{"uri":"steval_optimized.bin","byteLength":384}],"asset":{"version":"2.0","generator":"gltfpack 0.20"},"extensionsUsed":["KHR_mesh_quantization"],"extensionsRequired":["KHR_mesh_quantization"],"bufferViews":[{"buffer":0,"byteOffset":0,"byteLength":208,"byteStride":8,"target":34962},{"buffer":0,"byteOffset":208,"byteLength":104,"byteStride":4,"target":34962},{"buffer":0,"byteOffset":312,"byteLength":72,"target":34963}],"accessors":[{"bufferView":0,"byteOffset":0,"componentType":5123,"count":26,"type":"VEC3","min":[0,0,0],"max":[16383,9215,322]},{"bufferView":1,"byteOffset":0,"componentType":5120,"count":26,"type":"VEC3","normalized":true},{"bufferView":2,"byteOffset":0,"componentType":5123,"count":36,"type":"SCALAR"}],"materials":[{"name":"mat0","pbrMetallicRoughness":{"baseColorFactor":[0.603827357,0.603827357,0.603827357,1],"metallicFactor":0.5,"roughnessFactor":0.5},"doubleSided":true}],"meshes":[{"primitives":[{"attributes":{"POSITION":0,"NORMAL":1},"indices":2,"material":0}]}],"nodes":[{"mesh":0,"translation":[-23.8327236,-13.4059076,-0.469148129],"scale":[0.0029094459,0.0029094459,0.0029094459]}],"scenes":[{"name":"AuxScene","nodes":[0]}],"scene":0}