{"buffers":[{"uri":"usb2_addon_optimized.bin","byteLength":461820}],"asset":{"version":"2.0","generator":"gltfpack 0.20"},"extensionsUsed":["KHR_mesh_quantization"],"extensionsRequired":["KHR_mesh_quantization"],"bufferViews":[{"buffer":0,"byteOffset":0,"byteLength":243960,"byteStride":8,"target":34962},{"buffer":0,"byteOffset":243960,"byteLength":121980,"byteStride":4,"target":34962},{"buffer":0,"byteOffset":365940,"byteLength":95880,"target":34963}],"accessors":[{"bufferView":0,"byteOffset":0,"componentType":5123,"count":30495,"type":"VEC3","min":[0,0,0],"max":[6990,16383,5122]},{"bufferView":1,"byteOffset":0,"componentType":5120,"count":30495,"type":"VEC3","normalized":true},{"bufferView":2,"byteOffset":0,"componentType":5123,"count":47940,"type":"SCALAR"}],"materials":[{"name":"mat0","pbrMetallicRoughness":{"baseColorFactor":[0.603827357,0.603827357,0.603827357,1],"metallicFactor":0.5,"roughnessFactor":0.5},"doubleSided":true}],"meshes":[{"primitives":[{"attributes":{"POSITION":0,"NORMAL":1},"indices":2,"material":0}]}],"nodes":[{"mesh":0,"translation":[-5.18919039,-12.1621618,-3.80270267],"scale":[0.00148472947,0.00148472947,0.00148472947]}],"scenes":[{"name":"AuxScene","nodes":[0]}],"scene":0}