{  "asset": {    "version": "2.0",    "generator": "THREE.GLTFExporter"  },  "scenes": [    {      "name": "AuxScene",      "nodes": [        1      ]    }  ],  "scene": 0,  "nodes": [    {      "mesh": 0    },    {      "children": [        0      ]    }  ],  "bufferViews": [    {      "buffer": 0,      "byteOffset": 0,      "byteLength": 739080,      "target": 34962,      "byteStride": 12    },    {      "buffer": 0,      "byteOffset": 739080,      "byteLength": 739080,      "target": 34962,      "byteStride": 12    }  ],  "buffers": [    {      "byteLength": 1478160,      "uri": "data:application/octet-stream;base64,"    }  ],  "accessors": [    {      "bufferView": 0,      "componentType": 5126,      "count": 61590,      "max": [        9.21978759765625,        13.463866233825684,        2.4685239791870117      ],      "min": [        -9.21978759765625,        -13.463866233825684,        -2.4685237407684326      ],      "type": "VEC3"    },    {      "bufferView": 1,      "componentType": 5126,      "count": 61590,      "max": [        1,        1,        1      ],      "min": [        -1,        -1,        -1      ],      "type": "VEC3"    }  ],  "materials": [    {      "pbrMetallicRoughness": {        "baseColorFactor": [          0.6038273388475408,          0.6038273388475408,          0.6038273388475408,          1        ],        "metallicFactor": 0.5,        "roughnessFactor": 0.5      },      "doubleSided": true,      "name": "mat0"    }  ],  "meshes": [    {      "primitives": [        {          "mode": 4,          "attributes": {            "POSITION": 0,            "NORMAL": 1          },          "material": 0        }      ]    }  ]}