{"buffers":[{"uri":"usb2_injector_optimized.bin","byteLength":610956}],"asset":{"version":"2.0","generator":"gltfpack 0.20"},"extensionsUsed":["KHR_mesh_quantization"],"extensionsRequired":["KHR_mesh_quantization"],"bufferViews":[{"buffer":0,"byteOffset":0,"byteLength":325184,"byteStride":8,"target":34962},{"buffer":0,"byteOffset":325184,"byteLength":162592,"byteStride":4,"target":34962},{"buffer":0,"byteOffset":487776,"byteLength":123180,"target":34963}],"accessors":[{"bufferView":0,"byteOffset":0,"componentType":5123,"count":40648,"type":"VEC3","min":[0,0,0],"max":[11219,16383,3004]},{"bufferView":1,"byteOffset":0,"componentType":5120,"count":40648,"type":"VEC3","normalized":true},{"bufferView":2,"byteOffset":0,"componentType":5123,"count":61590,"type":"SCALAR"}],"materials":[{"name":"mat0","pbrMetallicRoughness":{"baseColorFactor":[0.603827357,0.603827357,0.603827357,1],"metallicFactor":0.5,"roughnessFactor":0.5},"doubleSided":true}],"meshes":[{"primitives":[{"attributes":{"POSITION":0,"NORMAL":1},"indices":2,"material":0}]}],"nodes":[{"mesh":0,"translation":[-9.2197876,-13.4638662,-2.46852374],"scale":[0.00164363871,0.00164363871,0.00164363871]}],"scenes":[{"name":"AuxScene","nodes":[0]}],"scene":0}